<svg xmlns="http://www.w3.org/2000/svg" width="1200" height="630" viewBox="0 0 1200 630" role="img" aria-labelledby="title desc">
  <title id="title">Developer Portfolio Preview</title>
  <desc id="desc">Default social preview image for developer portfolio pages.</desc>
  <defs>
    <linearGradient id="bg" x1="0" y1="0" x2="1" y2="1">
      <stop offset="0" stop-color="#020617"/>
      <stop offset="0.55" stop-color="#0f172a"/>
      <stop offset="1" stop-color="#312e81"/>
    </linearGradient>
    <linearGradient id="line" x1="0" y1="0" x2="1" y2="0">
      <stop offset="0" stop-color="#22d3ee"/>
      <stop offset="1" stop-color="#f472b6"/>
    </linearGradient>
  </defs>
  <rect width="1200" height="630" fill="url(#bg)"/>
  <g opacity="0.16" stroke="#22d3ee" stroke-width="1">
    <path d="M0 90h1200M0 180h1200M0 270h1200M0 360h1200M0 450h1200M0 540h1200"/>
    <path d="M100 0v630M200 0v630M300 0v630M400 0v630M500 0v630M600 0v630M700 0v630M800 0v630M900 0v630M1000 0v630M1100 0v630"/>
  </g>
  <rect x="88" y="86" width="1024" height="458" rx="28" fill="#020617" opacity="0.72" stroke="#334155"/>
  <rect x="132" y="144" width="96" height="96" rx="20" fill="#0f172a" stroke="#22d3ee"/>
  <path d="m165 196 26-26-26-26" fill="none" stroke="#22d3ee" stroke-width="10" stroke-linecap="round" stroke-linejoin="round"/>
  <path d="M198 204h44" fill="none" stroke="#f472b6" stroke-width="10" stroke-linecap="round"/>
  <text x="132" y="330" fill="#f8fafc" font-family="Inter, Arial, sans-serif" font-size="68" font-weight="800">Developer Portfolio</text>
  <text x="132" y="395" fill="#cbd5e1" font-family="Inter, Arial, sans-serif" font-size="34" font-weight="600">Projects, skills, experience, and contact details</text>
  <rect x="132" y="454" width="310" height="12" rx="6" fill="url(#line)"/>
</svg>
